<svg width="75" height="75" viewBox="0 0 75 75" fill="none" xmlns="http://www.w3.org/2000/svg">
<rect x="0.5" y="0.5" width="74" height="74" rx="3.5" fill="black"/>
<rect x="0.5" y="0.5" width="74" height="74" rx="3.5" fill="url(#paint0_linear_18686_4335)"/>
<rect x="0.5" y="0.5" width="74" height="74" rx="3.5" stroke="#C6C6C6"/>
<g clip-path="url(#clip0_18686_4335)">
<path d="M53.8316 31.4086C53.8327 31.3845 53.834 31.3605 53.8349 31.3364C53.8349 24.142 48.4487 18.0361 41.0449 15.9876C41.7488 16.9559 42.3709 18.1437 42.9008 19.5352C43.9447 22.2764 44.6196 25.8272 44.8103 29.4913C45.4612 29.2482 46.1971 29.111 46.966 29.111C48.7108 29.111 50.288 29.815 51.0781 30.8696L38.8191 38.1454L42.278 32.0003C42.4096 31.8076 42.4812 31.5667 42.4811 31.3273C42.4224 23.5515 40.0015 15.2776 35.6301 15.2542C35.6222 15.254 35.6122 15.2538 35.6051 15.254C31.2261 15.2635 28.8016 23.5425 28.7434 31.3275C28.7431 31.5648 28.8137 31.8036 28.9432 31.9952L32.4134 38.2015L20.075 30.9733C20.8402 29.8708 22.4725 29.1111 24.2585 29.1111C25.0273 29.1111 25.7632 29.2483 26.4141 29.4914C26.6047 25.8224 27.2806 22.268 28.3264 19.5256C28.8558 18.1373 29.4772 16.9522 30.1801 15.9858C27.413 16.7546 24.8701 18.1136 22.7474 19.9929C21.0637 21.4836 19.7388 23.218 18.8097 25.1479C17.85 27.1414 17.3603 29.2497 17.3526 31.4151C17.3323 31.906 17.6223 32.3669 18.0628 32.5574L29.8441 39.4594H41.2762L53.1284 32.425C53.5278 32.247 53.8045 31.8581 53.8316 31.4086ZM31.2581 31.2503C31.9265 29.9877 33.665 29.111 35.6122 29.111C37.5585 29.111 39.2963 29.9869 39.9654 31.2486L35.5967 39.0097L31.2581 31.2503Z" fill="white"/>
<path d="M36.7723 46.326V41.8438H34.4146V46.3459L35.6176 45.5457L36.7723 46.326Z" fill="white"/>
<path d="M44.8387 41.8438H39.1562V48.5328C39.1562 48.952 38.9549 49.3547 38.6003 49.5782C38.1996 49.8309 37.6886 49.8224 37.2968 49.5578L35.6068 48.4159L33.8825 49.5626C33.4587 49.8446 32.8949 49.8298 32.4822 49.5047C32.1885 49.2735 32.0303 48.9099 32.0303 48.5362V41.8438H26.3478C25.6895 41.8438 25.1558 42.3775 25.1558 43.0358V54.7403C25.1558 55.3986 25.6895 55.9323 26.3478 55.9323H44.8387C45.497 55.9323 46.0307 55.3986 46.0307 54.7403V43.0358C46.0307 42.3775 45.497 41.8438 44.8387 41.8438Z" fill="white"/>
</g>
<defs>
<linearGradient id="paint0_linear_18686_4335" x1="37.5" y1="0" x2="37.5" y2="75" gradientUnits="userSpaceOnUse">
<stop stop-color="#230634"/>
<stop offset="1" stop-color="#481367"/>
</linearGradient>
<clipPath id="clip0_18686_4335">
<rect width="40.678" height="40.678" fill="white" transform="translate(15.2544 15.2539)"/>
</clipPath>
</defs>
</svg>
